# xmcd
#
# Track frame offsets:
#	150
#	12540
#	24622
#	37200
#	47752
#	59447
#	70800
#	85540
#	96557
#	107652
#	117467
#	130197
#	141730
#	153055
#	163762
#	173492
#	183695
#	194892
#	207877
#	228930
#	246552
#	257985
#	272400
#	285765
#	294830
#	308257
#	318842
#
# Disc length: 4443 seconds
# Revision: 0
# Processed by: cddbd v1.5.2PL0 Copyright (c) Steve Scherf et al.
# Submitted via: dBpowerAMP V12.0
#
DISCID=8a11591b
DTITLE=Marty Robbins - The Essential Marty Robbins: 1951-1982 [CD1]
DYEAR=1991
DGENRE=Oldies
TTITLE0=Tomorrow You'll Be Gone
TTITLE1=I'll Go on Alone
TTITLE2=I Couldn't Keep From Crying
TTITLE3=Pain And Misery
TTITLE4=That's All Right
TTITLE5=Maybellene
TTITLE6=Tennessee Toddy
TTITLE7=I Can't Quit
TTITLE8=Singing The Blues
TTITLE9=Knee Deep in The Blues
TTITLE10=Mister Teardrop
TTITLE11=The Story of My Life
TTITLE12=A White Sport Coat (And a Pink Carnation)
TTITLE13=She Was Only Seventeen (He Was One Year More)
TTITLE14=Just Married
TTITLE15=Ain't I The Lucky One
TTITLE16=Kaw-Liga
TTITLE17=The Hanging Tree
TTITLE18=El Paso
TTITLE19=Big Iron
TTITLE20=Song of The Bandit
TTITLE21=Cool Water
TTITLE22=A Little Sentimental
TTITLE23=September in The Rain
TTITLE24=All The Way
TTITLE25=Unchained Melody
TTITLE26=Don't Worry
EXTD=
EXTT0=
EXTT1=
EXTT2=
EXTT3=
EXTT4=
EXTT5=
EXTT6=
EXTT7=
EXTT8=
EXTT9=
EXTT10=
EXTT11=
EXTT12=
EXTT13=
EXTT14=
EXTT15=
EXTT16=
EXTT17=
EXTT18=
EXTT19=
EXTT20=
EXTT21=
EXTT22=
EXTT23=
EXTT24=
EXTT25=
EXTT26=
PLAYORDER=
